<svg width="24" height="24" viewBox="0 0 24 24" fill="none" xmlns="http://www.w3.org/2000/svg">
<path fill-rule="evenodd" clip-rule="evenodd" d="M12.0001 13.579C9.21405 13.579 6.94751 11.3832 6.94751 8.66448V7.44079C6.94751 4.72204 9.21405 2.52632 12.0001 2.52632C14.7862 2.52632 17.0528 4.72204 17.0528 7.44079V8.66448C17.0528 11.3832 14.7862 13.579 12.0001 13.579ZM12 12.3158C14.0973 12.3158 15.7895 10.6765 15.7895 8.66448V7.44079C15.7895 5.42879 14.0973 3.78948 12 3.78948C9.9027 3.78948 8.21051 5.42879 8.21051 7.44079V8.66448C8.21051 10.6765 9.9027 12.3158 12 12.3158ZM21.7895 21.4737C21.7895 21.1249 21.5067 20.8421 21.1579 20.8421H3.72351C3.61401 20.8421 3.52943 20.7453 3.54911 20.6376C3.95373 18.4222 5.93783 16.7368 8.33029 16.7368H13.2087C13.5575 16.7368 13.8403 16.4541 13.8403 16.1053C13.8403 15.7565 13.5575 15.4737 13.2087 15.4737H8.33029C4.95324 15.4737 2.21051 18.1566 2.21051 21.4737V21.9114C2.21051 22.0185 2.2973 22.1053 2.40436 22.1053H21.1579C21.5067 22.1053 21.7895 21.8225 21.7895 21.4737ZM18.316 13.8947C18.316 13.5459 18.5988 13.2632 18.9476 13.2632C19.2964 13.2632 19.5792 13.5459 19.5792 13.8947V15.4737H21.1576C21.5065 15.4737 21.7892 15.7565 21.7892 16.1053C21.7892 16.4541 21.5065 16.7368 21.1576 16.7368H19.5792V18.3158C19.5792 18.6646 19.2964 18.9474 18.9476 18.9474C18.5988 18.9474 18.316 18.6646 18.316 18.3158V16.7368H16.7366C16.3878 16.7368 16.105 16.4541 16.105 16.1053C16.105 15.7565 16.3878 15.4737 16.7366 15.4737H18.316V13.8947Z" fill="#333333"/>
</svg>
