<svg width="24" height="24" viewBox="0 0 24 24" fill="none" xmlns="http://www.w3.org/2000/svg">
<path fill-rule="evenodd" clip-rule="evenodd" d="M12 22.421C6.5934 22.421 2.2105 18.0382 2.2105 12.6316C2.2105 7.225 6.5934 2.8421 12 2.8421C17.4066 2.8421 21.7894 7.225 21.7894 12.6316C21.7894 18.0382 17.4066 22.421 12 22.421ZM20.4332 13.8947C20.4944 13.4826 20.5261 13.0608 20.5261 12.6316C20.5261 7.92262 16.7088 4.10526 11.9998 4.10526C7.29087 4.10526 3.47351 7.92262 3.47351 12.6316C3.47351 13.0608 3.50522 13.4826 3.56643 13.8947H11.1358L7.71967 8.77058C7.52619 8.48035 7.60461 8.08822 7.89484 7.89473C8.18507 7.70125 8.5772 7.77967 8.77068 8.0699L12.4911 13.6505C12.5419 13.7267 12.5739 13.8099 12.5883 13.8947H20.4332ZM20.1457 15.1579H3.85399C4.93067 18.6334 8.17043 21.1579 11.9998 21.1579C15.8292 21.1579 19.069 18.6334 20.1457 15.1579Z" fill="#333333"/>
</svg>
